<?xml version="1.0" encoding="iso-8859-1"?>
<!-- Generator: Adobe Illustrator 25.1.0, SVG Export Plug-In . SVG Version: 6.00 Build 0)  -->
<svg version="1.1" id="Layer_1" xmlns="http://www.w3.org/2000/svg" xmlns:xlink="http://www.w3.org/1999/xlink" x="0px" y="0px"
	 width="720px" height="263.857px" viewBox="0 0 720 263.857" enable-background="new 0 0 720 263.857" xml:space="preserve">
<path d="M661.67,80.68l-0.22-0.053l-5.162,21.271L651.52,78.32l-66.585-14.65l0.489,37.061l0.002,0.179l9.947,2.215l-0.686,6.109
	c-12.385-6.574-27.793-7.217-42.273-1.764c-4.599,1.76-9.026,4.129-13.162,7.045l-9.884-62.63l-0.031-0.191h-44.381l-1.234,7.225
	h-46.292l-5.25,32.105l-3.531-4.345c-10.975-13.508-26.865-21.245-44.82-21.847l38.772-20.831L395.06,2.873l-0.164-0.246
	l-49.739,57.295l-0.125,0.144l8.497,10.365c-7.513,3.095-14.152,7.323-19.741,12.57L291.253,45.27l-14.566,27.868l0.565-26.695
	l-66.717,21.293l-0.165,0.053l1.712,36.148l11.315-2.948l1.622,17.443c-12.886-5.657-28.399-5.452-42.628,0.579
	c-4.006,1.722-7.868,3.896-11.487,6.466c2.412-11.133,1.574-21.884-2.432-31.126c-4.958-11.349-13.644-20.925-24.442-26.956
	c-7.435-4.949-16.391-8.13-25.885-9.195C95.146,54.165,67.509,58.31,40.323,69.87C30.731,73.914,21.4,78.778,12.589,84.33
	l-10.803,6.87l26.403,44.613c0,0,1.528,2.581,3.059,5.161c3.174,5.346,3.174,5.35,3.374,5.236l12.066-5.897l49.315,110.125
	l4.836,10.791l49.937-15.967l-17.318-66.527c3.806-2.805,7.459-5.86,10.868-9.089c-0.707,6.553-0.21,12.909,1.479,18.904
	c3.736,13.284,12.443,23.791,24.517,29.586c13.03,6.267,28.937,6.284,43.642,0.053c7.045-3.006,13.482-7.311,19.141-12.801
	l1.996,21.469l47.068-6.914l0.194-0.029l-0.061-41.853l97.544,48.247l0.326,0.161v-47.019c3.983-0.331,7.957-0.97,11.814-1.9
	c10.691-2.574,19.798-6.128,27.823-10.86l-4.068,24.876l53.215,8.392l2.853-18.572l13.671,25.26l8.262-15.956l3.006,26.078
	l60.324,10.641l-3.182-20.159c8.209,0.874,16.836-0.28,24.971-3.344c1.808-0.687,3.602-1.478,5.47-2.416l-2.386,21.256l39.849,5.576
	l0.322,16.136l0.004,0.163l41.65,13.107l0.212,0.067l54.234-163.399L661.67,80.68z M304.164,130.919l11.89-11.549
	c-0.461,5.417-0.156,10.968,0.907,16.514L304.164,130.919z M427.073,122.263l-8.156-7.342l11.33-12.065L427.073,122.263z"/>
<path d="M661.67,80.68l-0.22-0.053l-5.162,21.271L651.52,78.32l-66.585-14.65l0.489,37.061l0.002,0.179l9.947,2.215l-0.686,6.109
	c-12.385-6.574-27.793-7.217-42.273-1.764c-4.599,1.76-9.026,4.129-13.162,7.045l-9.884-62.63l-0.031-0.191h-44.381l-1.234,7.225
	h-46.292l-5.25,32.105l-3.531-4.345c-10.975-13.508-26.865-21.245-44.82-21.847l38.772-20.831L395.06,2.873l-0.164-0.246
	l-49.739,57.295l-0.125,0.144l8.497,10.365c-7.513,3.095-14.152,7.323-19.741,12.57L291.253,45.27l-14.566,27.868l0.565-26.695
	l-66.717,21.293l-0.165,0.053l1.712,36.148l11.315-2.948l1.622,17.443c-12.886-5.657-28.399-5.452-42.628,0.579
	c-4.006,1.722-7.868,3.897-11.487,6.466c2.412-11.133,1.574-21.884-2.432-31.126c-4.958-11.349-13.644-20.925-24.442-26.956
	c-7.435-4.949-16.391-8.13-25.885-9.195C95.146,54.165,67.509,58.31,40.323,69.87C30.731,73.914,21.4,78.779,12.589,84.33
	l-10.803,6.87l26.403,44.613c0,0,1.528,2.581,3.059,5.161c3.174,5.346,3.174,5.35,3.374,5.236l12.066-5.897l49.315,110.125
	l4.836,10.791l49.937-15.967l-17.318-66.527c3.805-2.805,7.459-5.86,10.868-9.089c-0.707,6.553-0.21,12.909,1.479,18.904
	c3.736,13.284,12.443,23.791,24.517,29.586c13.03,6.267,28.937,6.284,43.642,0.053c7.045-3.006,13.482-7.311,19.141-12.801
	l1.996,21.469l47.068-6.914l0.194-0.029l-0.061-41.853l97.544,48.247l0.326,0.161v-47.019c3.984-0.331,7.957-0.97,11.814-1.9
	c10.691-2.574,19.798-6.128,27.823-10.86l-4.068,24.876l53.215,8.392l2.852-18.572l13.671,25.26l8.262-15.957l3.006,26.078
	l60.324,10.642l-3.182-20.159c8.209,0.874,16.836-0.28,24.971-3.344c1.808-0.687,3.602-1.478,5.47-2.416l-2.386,21.256l39.849,5.576
	l0.322,16.136l0.004,0.163l41.65,13.107l0.212,0.067l54.234-163.399L661.67,80.68z M392.754,21.181l14.496,19.685l-41.439,20.536
	l-2.863-4.338L392.754,21.181z M118.316,173.045l16.516,63.442l-26.76,8.553L53.143,122.384c-2.973,1.568-8.484,4.199-13.575,6.704
	L19.687,95.494c7.93-5.047,16.586-9.531,25.811-13.453c25.905-11.018,50.575-14.284,70.362-10.814
	c6.977,0.802,14.39,2.88,20.846,7.177c8.904,5.002,15.698,12.125,19.636,21.208C165.902,121.663,149.923,153.527,118.316,173.045z
	 M209.447,206.692c-23.229,9.849-46.437,0-52.636-22.019c-6.016-21.351,7.971-46.698,30.474-56.371
	c23.229-9.845,46.616,0,52.64,21.347v0C246.12,171.493,232.134,197.019,209.447,206.692z M367.705,206.598l-97.13-48.575
	l0.171,50.889l-25.122,3.438l-1.769-21.015c7.777-13.282,10.611-28.961,6.547-43.307c-2.225-7.887-6.318-14.78-11.899-20.252
	l-3.603-42.798l-11.303,2.949l-0.493-10.81l40.364-12.016l2.46,41.61l29.729-41.765l29.053,27.66l-40.608,42.82l38.155,15.1
	c4.283,8.074,10.755,14.961,18.937,19.998c7.904,4.865,16.929,7.77,26.511,8.667V206.598z M316.961,135.885l-12.797-4.966
	l11.89-11.549C315.593,124.787,315.898,130.338,316.961,135.885z M388.954,165.066c-28.911,6.965-53.821-6.814-59.128-29.359
	c-6.594-28.018,11.221-49.984,37.631-56.351c21.249-5.12,39.948,1.373,51.382,15.433l-40.437,43.068
	c2.753,0.489,7.112-0.232,10.325-1.006c9.645-2.326,15.054-7.421,19.771-13.013l21.078,18.968
	C418.643,154.085,406.464,160.846,388.954,165.066z M427.073,122.263l-8.156-7.342l11.33-12.065L427.073,122.263z M508.734,206.391
	l-8.786-58.273l-12.431,32.153l-18.642-40.173h-0.195l-7.376,46.535l-31.033-5.397l4.349-25.961
	c1.172-1.095,2.334-2.216,3.475-3.394l10.04-10.358l-9.742-8.766l10.357-61.82h31.35l7.812,42.787l8.806-49.606h22.394l9.306,60.441
	c-11.845,13.487-17.573,31.594-13.615,48.191c3.055,12.83,10.965,23.2,22.267,29.212c1.146,0.609,2.326,1.149,3.521,1.654
	l1.204,7.82L508.734,206.391z M574.897,193.447c-22.483,8.468-44.193-1.796-49.235-22.992c-4.9-20.553,9.384-44.127,31.175-52.469
	c22.483-8.472,44.36,1.8,49.268,22.349v0C611.155,161.359,596.859,185.109,574.897,193.447z M656.048,242.364l-22.96-6.863
	l-2.004-84.634l-11.551,65.291l-25.061-3.983l1.785-18.824c16.358-13.818,25.047-35.608,20.307-55.366
	c-2.091-8.766-6.581-16.374-12.952-22.19l2.102-22.162l-9.45-2.525l0.644-11.84h0l43.158,8.672l14.508,68.822l14.871-61.695
	l32.837,7.266L656.048,242.364z M135.529,120.596c-2.35-13.001-19.274-20.28-36.193-11.209l4.248,14.891l6.696,22.011l3.055,10.04
	C126.01,148.272,138.787,138.599,135.529,120.596L135.529,120.596z M118.691,140.452L118.691,140.452l-5.78-19.009l-1.719-6.024
	c3.589-0.635,7.022-0.314,9.845,1.051c1.572,0.758,4.301,2.529,4.9,5.857C127.293,129.801,124.715,135.12,118.691,140.452z
	 M390.644,100.223c-9.438-8.591-24.053-7.904-32.643,1.534c-8.591,9.438-7.904,24.053,1.534,32.643
	c0.786,0.713,1.617,1.34,2.464,1.927l30.275-34.454C391.761,101.293,391.217,100.743,390.644,100.223z M362.027,124.498
	c-3.079-5.588-2.262-12.515,2.033-17.233v0c4.137-4.541,10.635-6.08,16.37-3.878L362.027,124.498z M220.666,142.998
	c2.236,3.102,3.537,6.801,3.537,10.736c0,11.331-9.494,20.259-21.542,20.259c-11.869,0-21.359-8.928-21.359-20.259
	c0-10.643,9.49-19.575,21.542-19.575c1.371,0,2.709,0.125,4.007,0.353c-6.631,0.556-11.819,5.518-11.819,11.565
	c0,6.419,5.845,11.62,13.058,11.62c7.209,0,13.054-5.201,13.054-11.62C221.145,145.009,220.969,143.98,220.666,142.998z
	 M586.664,133.087c2.114,3.193,3.267,6.947,3.108,10.884c-0.46,11.323-10.309,19.856-22.353,19.367
	c-11.853-0.481-20.976-9.788-20.516-21.107c0.428-10.635,10.276-19.172,22.316-18.683c1.365,0.055,2.691,0.233,3.973,0.51
	c-6.643,0.293-12.02,5.039-12.258,11.077c-0.261,6.411,5.368,11.848,12.569,12.138c7.209,0.293,13.262-4.668,13.514-11.079
	C587.063,135.124,586.929,134.084,586.664,133.087z"/>
<path d="M701.113,242.513h3.276v15.474h-2.371v-11.499l-3.876,11.495h-2.336l-3.896-11.499v11.499h-2.375v-15.469h3.301
	l4.158,12.221L701.113,242.513z M675.532,244.757h5.071v13.229h2.509v-13.229h5.071v-2.24h-12.651V244.757z"/>
<g>
	<path fill="#F7EC13" d="M156.342,99.612c-3.939-9.083-10.732-16.207-19.636-21.208c-6.456-4.297-13.869-6.374-20.846-7.177
		c-19.787-3.47-44.457-0.204-70.362,10.814c-9.226,3.922-17.881,8.407-25.811,13.453l19.881,33.595
		c5.091-2.505,10.602-5.136,13.575-6.704l54.929,122.656l26.76-8.553l-16.516-63.442
		C149.923,153.527,165.902,121.663,156.342,99.612z M113.335,156.329l-3.055-10.04l-6.696-22.011l-4.248-14.891
		c16.919-9.071,33.843-1.792,36.193,11.209v0C138.787,138.599,126.01,148.272,113.335,156.329z M125.937,122.327
		c1.356,7.474-1.222,12.793-7.246,18.125v0l-5.78-19.009l-1.719-6.024c3.588-0.635,7.022-0.314,9.845,1.051
		C122.609,117.228,125.338,118.999,125.937,122.327z"/>
	<path fill="#F7EC13" d="M239.925,149.649c-6.024-21.347-29.412-31.191-52.64-21.347c-22.504,9.674-36.49,35.02-30.474,56.371
		c6.199,22.019,29.407,31.868,52.636,22.019C232.134,197.019,246.12,171.493,239.925,149.649L239.925,149.649z M202.661,173.994
		c-11.869,0-21.359-8.928-21.359-20.259c0-10.643,9.49-19.575,21.542-19.575c1.371,0.001,2.709,0.125,4.007,0.353
		c-6.631,0.556-11.819,5.518-11.819,11.565c0,6.419,5.845,11.62,13.058,11.62c7.209,0,13.054-5.201,13.054-11.62
		c0-1.068-0.175-2.097-0.478-3.079c2.236,3.102,3.537,6.801,3.537,10.736C224.203,165.066,214.709,173.994,202.661,173.994z"/>
	<path fill="#F7EC13" d="M322.257,150.526l-38.155-15.1l40.608-42.82l-29.053-27.66l-29.729,41.765l-2.46-41.61l-40.364,12.016
		l0.493,10.81l11.303-2.949l3.603,42.798c5.581,5.472,9.673,12.366,11.899,20.252c4.064,14.346,1.23,30.024-6.547,43.307
		l1.769,21.015l25.123-3.438l-0.171-50.889l97.13,48.575V179.19c-9.583-0.897-18.607-3.802-26.511-8.667
		C333.012,165.487,326.54,158.599,322.257,150.526z"/>
	<path fill="#F7EC13" d="M388.726,136.852c-3.214,0.774-7.572,1.495-10.325,1.006l40.437-43.068
		c-11.433-14.06-30.132-20.553-51.382-15.433c-26.41,6.366-44.225,28.332-37.631,56.351c5.307,22.544,30.218,36.323,59.128,29.359
		c17.51-4.22,29.688-10.981,40.621-22.259l-21.078-18.968C403.78,129.43,398.371,134.526,388.726,136.852z M361.999,136.326
		c-0.847-0.587-1.678-1.214-2.464-1.927c-9.438-8.591-10.124-23.206-1.534-32.643c8.591-9.438,23.206-10.124,32.643-1.534
		c0.572,0.52,1.116,1.071,1.629,1.65L361.999,136.326z M380.429,103.387l-18.402,21.111c-3.079-5.588-2.262-12.515,2.032-17.233v0
		C368.197,102.724,374.695,101.185,380.429,103.387z"/>
	<polygon fill="#F7EC13" points="407.25,40.866 392.754,21.181 362.948,57.065 365.811,61.402 	"/>
	<path fill="#F7EC13" d="M537.071,201.963c-11.303-6.012-19.213-16.382-22.267-29.212c-3.957-16.598,1.77-34.704,13.615-48.191
		l-9.306-60.441h-22.394l-8.806,49.606l-7.812-42.787h-31.35l-10.357,61.82l9.742,8.766l-10.04,10.358
		c-1.141,1.178-2.303,2.299-3.475,3.394l-4.349,25.961l31.033,5.397l7.376-46.535h0.195l18.642,40.173l12.431-32.153l8.786,58.273
		l33.061,5.047l-1.204-7.82C539.396,203.112,538.216,202.572,537.071,201.963z"/>
	<path fill="#F7EC13" d="M606.105,140.334L606.105,140.334c-4.908-20.549-26.784-30.821-49.268-22.349
		c-21.791,8.342-36.075,31.916-31.175,52.469c5.042,21.196,26.752,31.46,49.235,22.992
		C596.859,185.109,611.155,161.359,606.105,140.334z M567.419,163.339c-11.853-0.481-20.976-9.788-20.516-21.107
		c0.428-10.635,10.276-19.172,22.316-18.683c1.365,0.055,2.691,0.233,3.973,0.51c-6.643,0.293-12.02,5.039-12.258,11.077
		c-0.261,6.411,5.368,11.848,12.569,12.138c7.209,0.293,13.262-4.668,13.514-11.079c0.044-1.071-0.09-2.111-0.354-3.109
		c2.114,3.193,3.267,6.947,3.108,10.884C589.312,155.294,579.463,163.827,567.419,163.339z"/>
	<path fill="#F7EC13" d="M669.445,95.066l-14.871,61.695l-14.508-68.822l-43.158-8.672h0l-0.644,11.84l9.45,2.525l-2.102,22.162
		c6.372,5.816,10.861,13.424,12.952,22.19c4.74,19.758-3.949,41.549-20.307,55.366l-1.785,18.824l25.061,3.983l11.551-65.291
		l2.004,84.634l22.96,6.863l46.233-140.031L669.445,95.066z"/>
</g>
<g>
</g>
<g>
</g>
<g>
</g>
<g>
</g>
<g>
</g>
</svg>
